<svg xmlns="http://www.w3.org/2000/svg" viewBox="0 0 128 128" role="img" aria-label="INJ coin">
  <defs>
    <linearGradient id="coinRing" x1="12" y1="14" x2="114" y2="112" gradientUnits="userSpaceOnUse">
      <stop stop-color="#ffffff"/>
      <stop offset="0.55" stop-color="#f4f0ff"/>
      <stop offset="1" stop-color="#d8ccff"/>
    </linearGradient>
    <linearGradient id="injBlue" x1="28" y1="24" x2="102" y2="105" gradientUnits="userSpaceOnUse">
      <stop stop-color="#5b45ff"/>
      <stop offset="0.55" stop-color="#4028e8"/>
      <stop offset="1" stop-color="#7c4dff"/>
    </linearGradient>
    <filter id="softShadow" x="-20%" y="-20%" width="140%" height="140%">
      <feDropShadow dx="0" dy="8" stdDeviation="7" flood-color="#3b257d" flood-opacity="0.22"/>
    </filter>
  </defs>
  <circle cx="64" cy="64" r="58" fill="url(#coinRing)" filter="url(#softShadow)"/>
  <circle cx="64" cy="64" r="49" fill="#ffffff"/>
  <path
    d="M28 72C24 49 40 29 61 24c-11 8-17 17-18 28-1 12 5 20 18 27 12 6 19 14 20 26-24-2-46-14-53-33Z"
    fill="url(#injBlue)"
  />
  <path
    d="M100 56c5 24-11 44-32 49 11-8 17-17 18-28 1-12-5-20-18-27-12-6-19-14-20-26 24 2 46 14 52 32Z"
    fill="url(#injBlue)"
  />
  <path
    d="M44 91c16 12 39 10 54-5-9 21-34 31-55 21-12-6-21-17-25-30 6 6 14 11 26 14Z"
    fill="url(#injBlue)"
    opacity="0.9"
  />
</svg>
